<svg xmlns="http://www.w3.org/2000/svg" xmlns:xlink="http://www.w3.org/1999/xlink" width="480" zoomAndPan="magnify" viewBox="0 0 360 359.999987" height="480" preserveAspectRatio="xMidYMid meet" version="1.0"><defs><clipPath id="899cb6a971"><path d="M 91 225.378906 L 223.648438 225.378906 L 223.648438 333.644531 L 91 333.644531 Z M 91 225.378906 " clip-rule="nonzero"/></clipPath><clipPath id="6e792cc75a"><path d="M 186 169.621094 L 205 169.621094 L 205 229 L 186 229 Z M 186 169.621094 " clip-rule="nonzero"/></clipPath><clipPath id="07073bb5f5"><path d="M 21.171875 221.25 L 162.566406 221.25 L 162.566406 341.269531 L 21.171875 341.269531 Z M 21.171875 221.25 " clip-rule="nonzero"/></clipPath><clipPath id="ddd1da3d2a"><path d="M 21.171875 268 L 49 268 L 49 280 L 21.171875 280 Z M 21.171875 268 " clip-rule="nonzero"/></clipPath></defs><path fill="#edc695" d="M 190.84375 230.988281 C 190.84375 230.988281 178.21875 183.660156 178.289062 183.539062 C 177.386719 182.941406 176.421875 182.261719 176.109375 181.226562 C 175.792969 180.171875 176.332031 178.933594 177.316406 178.445312 C 178.300781 177.960938 179.613281 178.28125 180.257812 179.167969 C 180.972656 180.152344 180.828125 181.496094 180.589844 182.6875 C 180.589844 182.6875 195.53125 228.472656 196.058594 228.902344 C 194.820312 229.644531 193.503906 230.257812 190.84375 230.988281 " fill-opacity="1" fill-rule="nonzero"/><g clip-path="url(#899cb6a971)"><path fill="#d9b282" d="M 155.167969 277.320312 C 158.675781 276.742188 162.113281 281.351562 165.207031 279.59375 C 165.996094 279.148438 166.523438 278.363281 167.003906 277.589844 C 174.027344 266.253906 176.179688 252.585938 181.910156 240.542969 C 183.667969 236.851562 185.816406 233.246094 188.917969 230.574219 C 195.113281 225.238281 204.246094 224.484375 212.15625 226.554688 C 216.984375 227.816406 222.054688 230.59375 223.335938 235.410156 C 224.347656 239.21875 222.699219 243.191406 220.898438 246.699219 C 215.308594 257.582031 207.929688 267.476562 202.4375 278.410156 C 197.542969 288.15625 194.195312 298.640625 188.9375 308.195312 C 183.675781 317.75 176.015625 326.632812 165.683594 330.140625 C 160.542969 331.882812 155.046875 332.199219 149.628906 332.445312 C 132.675781 333.21875 115.699219 333.464844 98.726562 333.175781 C 95.925781 333.125 92.472656 332.625 91.53125 329.988281 C 91.097656 328.765625 91.371094 327.414062 91.707031 326.160156 C 95.1875 313.191406 104.792969 302.519531 116.035156 295.164062 C 127.277344 287.808594 139.1875 279.957031 155.167969 277.320312 " fill-opacity="1" fill-rule="nonzero"/></g><path fill="#ebc291" d="M 137.894531 300.65625 C 137.871094 300.621094 137.84375 300.585938 137.820312 300.554688 C 137.816406 300.546875 137.8125 300.539062 137.808594 300.535156 C 136.441406 298.675781 133.429688 299.941406 132.316406 301.5 C 132.046875 301.878906 132.230469 302.554688 132.644531 302.75 C 134.210938 303.492188 136.925781 303.183594 137.871094 301.578125 C 137.921875 301.492188 137.949219 301.398438 137.96875 301.296875 C 138.035156 301.085938 138.019531 300.851562 137.894531 300.65625 " fill-opacity="1" fill-rule="nonzero"/><path fill="#ebc291" d="M 156.882812 291.761719 C 155.105469 290.972656 152.257812 291.304688 151.691406 293.496094 C 151.566406 293.976562 151.847656 294.449219 152.3125 294.59375 C 152.433594 294.632812 152.554688 294.667969 152.679688 294.695312 C 152.78125 294.796875 152.898438 294.871094 153.035156 294.902344 C 154.613281 295.25 156.871094 294.40625 157.261719 292.691406 C 157.339844 292.367188 157.222656 291.914062 156.882812 291.761719 " fill-opacity="1" fill-rule="nonzero"/><path fill="#ebc291" d="M 177.476562 282.878906 C 177.550781 282.816406 177.628906 282.761719 177.703125 282.710938 C 177.652344 282.800781 177.59375 282.890625 177.53125 282.980469 C 177.515625 282.945312 177.5 282.910156 177.476562 282.878906 Z M 179.199219 280.753906 C 176.949219 279.878906 174.625 282.492188 174.445312 284.617188 C 174.320312 285.011719 174.300781 285.433594 174.441406 285.890625 C 174.601562 286.417969 175.105469 286.667969 175.628906 286.5625 C 177.632812 286.171875 179.976562 283.78125 179.886719 281.65625 C 179.867188 281.203125 179.601562 280.910156 179.199219 280.753906 " fill-opacity="1" fill-rule="nonzero"/><path fill="#ebc291" d="M 176.304688 267.222656 C 176.101562 266.769531 175.480469 266.699219 175.089844 266.902344 C 173.785156 267.574219 172.566406 269.695312 173.207031 271.160156 C 173.207031 271.164062 173.207031 271.167969 173.207031 271.171875 C 173.195312 271.8125 173.792969 272.144531 174.359375 272.050781 C 176.324219 271.722656 177.015625 268.789062 176.304688 267.222656 " fill-opacity="1" fill-rule="nonzero"/><path fill="#ebc291" d="M 189.464844 260.15625 C 189.261719 259.660156 188.804688 259.289062 188.230469 259.453125 C 186.984375 259.816406 186.21875 261.082031 185.976562 262.308594 C 185.84375 262.738281 185.792969 263.1875 185.832031 263.648438 C 185.890625 264.328125 186.476562 264.890625 187.195312 264.683594 C 188.867188 264.207031 190.140625 261.800781 189.464844 260.15625 " fill-opacity="1" fill-rule="nonzero"/><path fill="#ebc291" d="M 187.839844 241.75 C 187.449219 241.167969 186.703125 241.058594 186.179688 241.535156 C 185.21875 242.410156 184.070312 243.761719 184.246094 245.15625 C 184.285156 245.457031 184.40625 245.695312 184.574219 245.863281 C 184.574219 245.914062 184.574219 245.964844 184.574219 246.015625 C 184.601562 246.753906 185.257812 247.25 185.972656 247.082031 C 188.015625 246.605469 188.953125 243.414062 187.839844 241.75 " fill-opacity="1" fill-rule="nonzero"/><g clip-path="url(#6e792cc75a)"><path fill="#edc695" d="M 199.003906 228.6875 C 201.074219 228.945312 203.238281 228.324219 204.847656 227.003906 C 204.847656 227.003906 190.859375 176.238281 191.039062 176.195312 C 191.164062 174.601562 192.246094 173.027344 191.722656 171.515625 C 191.351562 170.433594 190.140625 169.738281 189.007812 169.890625 C 187.875 170.050781 186.917969 171 186.679688 172.117188 C 186.441406 173.234375 186.898438 174.453125 188.15625 175.75 C 191.230469 192.476562 194.304688 209.199219 199.003906 228.6875 " fill-opacity="1" fill-rule="nonzero"/></g><path fill="#c49e70" d="M 181.410156 254.449219 C 181.609375 253.457031 180.539062 252.894531 179.785156 253.503906 C 178.921875 254.203125 178.429688 255.105469 178.027344 256.117188 C 177.972656 256.265625 177.957031 256.398438 177.972656 256.523438 C 177.839844 256.976562 177.738281 257.4375 177.667969 257.886719 C 177.511719 258.871094 178.511719 259.453125 179.292969 258.832031 C 179.632812 258.558594 179.914062 258.246094 180.152344 257.90625 C 180.828125 257.039062 181.230469 256 181.316406 254.894531 C 181.347656 254.746094 181.378906 254.597656 181.410156 254.449219 " fill-opacity="1" fill-rule="nonzero"/><path fill="#c49e70" d="M 182.363281 261.832031 C 182.144531 261.148438 181.296875 260.898438 180.769531 261.410156 C 180.660156 261.515625 180.558594 261.625 180.457031 261.734375 C 179.808594 262.171875 179.457031 262.855469 179.25 263.640625 C 179.246094 263.664062 179.246094 263.679688 179.242188 263.699219 C 178.945312 264.457031 178.800781 265.273438 178.835938 266.117188 C 178.875 267.058594 179.953125 267.476562 180.640625 266.867188 C 181.101562 266.457031 181.464844 265.972656 181.746094 265.441406 C 182.453125 264.386719 182.761719 263.085938 182.363281 261.832031 " fill-opacity="1" fill-rule="nonzero"/><path fill="#c49e70" d="M 189.246094 250.929688 C 188.957031 250.71875 188.566406 250.683594 188.183594 250.875 C 186.277344 251.816406 185.699219 254.148438 185.894531 256.109375 C 185.960938 256.792969 186.558594 257.425781 187.304688 257.1875 C 189.492188 256.480469 190.363281 254.132812 190.371094 252.011719 C 190.375 251.304688 189.828125 250.921875 189.246094 250.929688 " fill-opacity="1" fill-rule="nonzero"/><path fill="#c49e70" d="M 174.90625 277.15625 C 174.929688 276.621094 174.410156 276.074219 173.863281 276.113281 C 171.429688 276.292969 170.558594 278.707031 170.238281 280.792969 C 170.101562 281.671875 170.742188 282.472656 171.6875 282.242188 C 171.699219 282.238281 171.707031 282.238281 171.71875 282.234375 C 171.925781 282.230469 172.132812 282.167969 172.3125 282.039062 C 173.808594 281.421875 174.839844 280.019531 174.695312 278.484375 C 174.8125 278.0625 174.886719 277.617188 174.90625 277.15625 " fill-opacity="1" fill-rule="nonzero"/><path fill="#c49e70" d="M 161.125 286.617188 C 160.867188 286.480469 160.605469 286.382812 160.339844 286.308594 C 160.328125 286.304688 160.316406 286.296875 160.304688 286.292969 C 158.984375 285.742188 157.078125 286.070312 156.195312 287.238281 C 155.949219 287.414062 155.71875 287.609375 155.503906 287.820312 C 154.742188 288.574219 155.347656 289.765625 156.335938 289.828125 C 157.324219 289.894531 158.238281 289.71875 159.082031 289.351562 C 159.257812 289.367188 159.441406 289.34375 159.632812 289.257812 C 160.285156 288.960938 160.847656 288.789062 161.332031 288.226562 C 161.742188 287.753906 161.75 286.941406 161.125 286.617188 " fill-opacity="1" fill-rule="nonzero"/><path fill="#c49e70" d="M 171.050781 287.214844 C 169.578125 284.3125 165.113281 285.652344 164.269531 288.355469 C 164.011719 289.1875 164.699219 289.792969 165.441406 289.886719 C 165.921875 289.949219 166.460938 289.960938 166.992188 289.894531 C 167.21875 290.074219 167.523438 290.152344 167.886719 290.039062 C 168.886719 289.734375 169.765625 289.199219 170.664062 288.675781 C 171.1875 288.371094 171.3125 287.730469 171.050781 287.214844 " fill-opacity="1" fill-rule="nonzero"/><path fill="#c49e70" d="M 148.925781 294.777344 C 146.753906 293.167969 143.894531 294.164062 142.570312 296.355469 C 142.300781 296.800781 142.433594 297.554688 142.945312 297.785156 C 143.570312 298.070312 144.191406 298.183594 144.800781 298.167969 C 146.484375 298.339844 148.367188 297.4375 149.265625 296.070312 C 149.570312 295.613281 149.320312 295.066406 148.925781 294.777344 " fill-opacity="1" fill-rule="nonzero"/><path fill="#c49e70" d="M 164.808594 295.625 C 163.4375 292.21875 159.617188 293.636719 157.636719 295.707031 C 157.261719 296.097656 157.183594 296.6875 157.449219 297.164062 C 157.535156 297.316406 157.628906 297.457031 157.730469 297.582031 C 157.84375 297.957031 158.113281 298.292969 158.511719 298.347656 C 158.570312 298.355469 158.628906 298.359375 158.6875 298.363281 C 160.101562 299.070312 162.011719 298.535156 163.242188 297.429688 C 163.605469 297.253906 163.960938 297.058594 164.308594 296.847656 C 164.683594 296.625 164.988281 296.066406 164.808594 295.625 " fill-opacity="1" fill-rule="nonzero"/><path fill="#c49e70" d="M 184.796875 271.773438 C 184.609375 271.152344 183.976562 270.792969 183.347656 270.949219 C 182.058594 271.269531 180.875 272.378906 180.1875 273.480469 C 179.835938 274.039062 179.585938 274.734375 179.75 275.398438 C 179.84375 275.78125 180.070312 276.117188 180.375 276.347656 C 180.378906 276.363281 180.382812 276.375 180.386719 276.394531 C 180.53125 276.953125 181.234375 277.425781 181.8125 277.203125 C 183.976562 276.363281 185.492188 274.121094 184.796875 271.773438 " fill-opacity="1" fill-rule="nonzero"/><g clip-path="url(#07073bb5f5)"><path fill="#a6683f" d="M 154.300781 261.460938 C 150.242188 255.5625 145.335938 250.261719 140.105469 245.390625 C 134.75 240.394531 129.050781 235.78125 122.773438 231.988281 C 122.019531 231.53125 121.261719 231.089844 120.496094 230.664062 C 118.582031 229.707031 116.652344 228.773438 114.671875 227.964844 C 110.898438 226.421875 106.898438 225.316406 102.976562 224.207031 C 99.789062 223.300781 96.539062 222.441406 93.253906 221.777344 C 92.484375 221.773438 91.714844 221.742188 90.945312 221.699219 C 88.1875 221.753906 85.433594 221.914062 82.683594 221.871094 C 78.972656 222.214844 75.285156 222.765625 71.6875 223.578125 C 67.550781 224.507812 63.554688 225.886719 59.617188 227.429688 C 58.761719 227.847656 57.921875 228.292969 57.089844 228.765625 C 52.5 231.382812 48.246094 234.714844 44.261719 238.167969 C 39.652344 242.164062 35.496094 246.570312 31.871094 251.386719 C 31.609375 251.875 31.351562 252.363281 31.085938 252.832031 C 29.609375 255.429688 28.28125 258.117188 27.078125 260.851562 C 22.757812 270.679688 20.394531 281.976562 21.398438 292.703125 C 22.019531 299.308594 23.75 306.007812 26.585938 312.128906 C 27.65625 314.113281 28.863281 316.023438 30.1875 317.851562 C 30.953125 318.761719 31.695312 319.691406 32.390625 320.660156 C 32.414062 320.691406 32.429688 320.71875 32.441406 320.75 C 36.050781 325.085938 40.3125 328.917969 44.898438 332.210938 C 48.8125 335.019531 53.035156 337.492188 57.554688 339.121094 C 57.890625 339.21875 58.222656 339.339844 58.550781 339.460938 C 58.765625 339.535156 58.980469 339.597656 59.195312 339.664062 C 59.839844 339.832031 60.480469 340.003906 61.113281 340.195312 C 61.378906 340.257812 61.640625 340.324219 61.90625 340.382812 C 67.429688 341.601562 73.167969 341.382812 78.792969 340.8125 C 89.339844 339.734375 100.007812 337.332031 108.925781 331.601562 C 113.328125 328.769531 117.253906 325.015625 120.140625 320.175781 C 120.402344 319.695312 120.671875 319.214844 120.945312 318.742188 C 123.433594 314.054688 124.980469 308.425781 125.128906 301.71875 C 125.207031 301.6875 125.28125 301.65625 125.355469 301.621094 C 125.441406 301.371094 125.601562 301.175781 125.96875 301.023438 C 126.730469 300.707031 127.601562 300.539062 128.425781 300.308594 C 140.824219 294.839844 152.398438 287.59375 162.542969 279.488281 C 160.726562 273.09375 158.09375 266.964844 154.300781 261.460938 " fill-opacity="1" fill-rule="nonzero"/></g><path fill="#945c37" d="M 87.898438 222.398438 C 87.648438 222.199219 87.398438 222.007812 87.148438 221.8125 C 86.363281 221.835938 85.574219 221.859375 84.789062 221.871094 C 87.726562 224.054688 90.507812 226.460938 93.070312 229.066406 C 97.589844 233.667969 101.808594 239.257812 103.085938 245.714844 C 103.8125 249.371094 103.285156 252.917969 101.761719 256.296875 C 101.34375 257.222656 102.683594 258.042969 103.148438 257.105469 C 109.785156 243.773438 97.636719 230.160156 87.898438 222.398438 " fill-opacity="1" fill-rule="nonzero"/><path fill="#945c37" d="M 120.390625 230.613281 C 119.90625 230.367188 119.417969 230.125 118.929688 229.886719 C 122.382812 238.742188 122.515625 249.003906 120.28125 258.144531 C 119.34375 261.988281 117.890625 265.554688 116.152344 269.097656 C 115.664062 270.09375 117.085938 270.957031 117.65625 269.976562 C 121.292969 263.722656 122.996094 256.105469 123.363281 248.941406 C 123.671875 242.878906 122.953125 236.6875 120.964844 230.933594 C 120.773438 230.824219 120.582031 230.71875 120.390625 230.613281 " fill-opacity="1" fill-rule="nonzero"/><path fill="#945c37" d="M 142.753906 247.929688 C 142.796875 251.484375 142.324219 255.070312 141.597656 258.484375 C 140.039062 265.824219 137.253906 272.914062 133.675781 279.496094 C 131.265625 283.921875 128.546875 288.1875 125.316406 292.0625 C 124.652344 292.863281 125.785156 294.019531 126.472656 293.214844 C 131.945312 286.789062 136.199219 279.269531 139.351562 271.453125 C 142.136719 264.539062 144.203125 257.070312 144.390625 249.570312 C 143.851562 249.015625 143.304688 248.46875 142.753906 247.929688 " fill-opacity="1" fill-rule="nonzero"/><path fill="#945c37" d="M 154.300781 261.460938 C 154.210938 261.324219 154.117188 261.195312 154.023438 261.058594 C 149.894531 271.445312 143.957031 280.980469 136.035156 289.074219 C 133.148438 292.019531 129.097656 293.558594 126.328125 296.601562 C 125.675781 297.316406 126.679688 298.324219 127.386719 297.664062 C 130.144531 295.082031 133.648438 293.539062 136.414062 290.976562 C 139.171875 288.417969 141.644531 285.5 143.9375 282.527344 C 148.453125 276.679688 152.117188 270.242188 154.972656 263.429688 C 155.054688 263.230469 155.132812 263.03125 155.214844 262.835938 C 154.917969 262.371094 154.613281 261.914062 154.300781 261.460938 " fill-opacity="1" fill-rule="nonzero"/><path fill="#945c37" d="M 71.707031 234.6875 C 68.300781 231.585938 64.132812 228.90625 59.660156 227.410156 C 59.648438 227.417969 59.636719 227.421875 59.621094 227.425781 C 58.886719 227.789062 58.160156 228.167969 57.441406 228.570312 C 62.175781 229.804688 66.617188 232.464844 70.214844 235.671875 C 74.558594 239.542969 78.234375 244.878906 77.921875 250.929688 C 77.867188 251.929688 79.382812 251.90625 79.46875 250.929688 C 80.027344 244.5625 76.234375 238.808594 71.707031 234.6875 " fill-opacity="1" fill-rule="nonzero"/><path fill="#945c37" d="M 33.84375 248.871094 C 33.390625 249.429688 32.945312 249.988281 32.507812 250.554688 C 36.015625 250.207031 39.5625 250.503906 42.960938 251.605469 C 47.964844 253.230469 51.789062 256.417969 54.988281 260.5 C 55.5625 261.238281 56.832031 260.265625 56.292969 259.492188 C 51.125 252.078125 42.519531 248.550781 33.84375 248.871094 " fill-opacity="1" fill-rule="nonzero"/><g clip-path="url(#ddd1da3d2a)"><path fill="#945c37" d="M 47.96875 270.101562 C 42.828125 267.21875 36.621094 268.652344 31.546875 270.945312 C 28.234375 272.445312 24.945312 274.472656 22.148438 276.972656 C 21.992188 277.835938 21.855469 278.703125 21.738281 279.574219 C 24.566406 276.660156 28.15625 274.351562 31.730469 272.660156 C 36.339844 270.484375 42.390625 268.839844 47.128906 271.539062 C 48.0625 272.070312 48.902344 270.628906 47.96875 270.101562 " fill-opacity="1" fill-rule="nonzero"/></g><path fill="#945c37" d="M 45.304688 288.472656 C 40.21875 293.015625 35.875 298.886719 33.222656 305.167969 C 31.484375 309.289062 30.554688 313.621094 30.328125 318.019531 C 30.882812 318.683594 31.421875 319.355469 31.941406 320.046875 C 31.96875 315.179688 32.84375 310.359375 34.785156 305.824219 C 37.476562 299.523438 41.828125 294.566406 46.582031 289.75 C 47.40625 288.914062 46.167969 287.699219 45.304688 288.472656 " fill-opacity="1" fill-rule="nonzero"/><path fill="#945c37" d="M 58.808594 339.5625 C 59.230469 339.671875 59.652344 339.78125 60.070312 339.898438 C 54.792969 330.144531 53.855469 318.089844 57.328125 307.617188 C 57.664062 306.601562 56.125 306.222656 55.75 307.183594 C 53.429688 313.136719 53.082031 319.921875 53.917969 326.203125 C 54.511719 330.691406 55.765625 335.105469 57.738281 339.175781 C 58.101562 339.292969 58.457031 339.425781 58.808594 339.5625 " fill-opacity="1" fill-rule="nonzero"/><path fill="#945c37" d="M 102.347656 335.183594 C 102.402344 335.160156 102.457031 335.136719 102.511719 335.113281 C 102.535156 335.101562 102.5625 335.085938 102.589844 335.074219 C 92.699219 331.464844 79.796875 324.589844 78.609375 312.855469 C 78.5 311.746094 76.753906 311.71875 76.851562 312.855469 C 77.835938 324.773438 89.933594 332.019531 100.230469 336.054688 C 100.933594 335.765625 101.640625 335.46875 102.347656 335.183594 " fill-opacity="1" fill-rule="nonzero"/><path fill="#945c37" d="M 120.769531 319.046875 C 109.898438 320.042969 98.449219 315.035156 91.804688 306.492188 C 91.230469 305.75 89.96875 306.722656 90.5 307.5 C 94.410156 313.242188 100.984375 317.152344 107.511719 319.183594 C 111.445312 320.410156 115.640625 321.023438 119.78125 320.835938 C 120.105469 320.238281 120.433594 319.636719 120.769531 319.046875 " fill-opacity="1" fill-rule="nonzero"/><path fill="#945c37" d="M 121.0625 276.855469 C 119.910156 279.210938 118.792969 281.417969 117.144531 283.488281 C 115.476562 285.585938 113.558594 287.488281 111.488281 289.1875 C 107.378906 292.566406 102.5625 295.253906 97.425781 296.6875 C 96.441406 296.960938 96.863281 298.5 97.847656 298.222656 C 103.191406 296.707031 108.125 293.894531 112.40625 290.390625 C 116.46875 287.070312 120.800781 282.550781 122.453125 277.441406 C 122.714844 276.632812 121.445312 276.074219 121.0625 276.855469 " fill-opacity="1" fill-rule="nonzero"/><path fill="#945c37" d="M 106.796875 259.910156 C 106.667969 258.910156 105.117188 258.847656 105.175781 259.910156 C 105.398438 263.710938 105.175781 267.347656 103.746094 270.921875 C 102.277344 274.589844 99.734375 277.71875 96.605469 280.097656 C 95.820312 280.695312 96.589844 282.042969 97.390625 281.4375 C 104.015625 276.425781 107.855469 268.273438 106.796875 259.910156 " fill-opacity="1" fill-rule="nonzero"/><path fill="#945c37" d="M 87.097656 252.125 C 86.527344 251.261719 85.132812 252.070312 85.703125 252.9375 C 88.972656 257.898438 90.59375 264.464844 87.351562 269.796875 C 86.917969 270.511719 88 271.402344 88.539062 270.714844 C 92.742188 265.375 90.484375 257.261719 87.097656 252.125 " fill-opacity="1" fill-rule="nonzero"/><path fill="#945c37" d="M 62.578125 255.757812 C 61.378906 255.363281 60.867188 257.25 62.058594 257.644531 C 66.921875 259.261719 70.410156 263.785156 70.457031 268.898438 C 70.464844 269.816406 71.976562 270.101562 72.128906 269.121094 C 73.074219 263.144531 67.917969 257.535156 62.578125 255.757812 " fill-opacity="1" fill-rule="nonzero"/><path fill="#945c37" d="M 59.65625 283.15625 C 56.261719 282.53125 53.160156 285.667969 51.523438 288.253906 C 49.753906 291.050781 48.542969 294.703125 49.222656 298.019531 C 49.464844 299.1875 51.246094 298.691406 51.011719 297.527344 C 50.460938 294.808594 51.601562 291.777344 52.984375 289.476562 C 53.742188 288.21875 54.675781 287.035156 55.855469 286.152344 C 57.058594 285.25 58.214844 285.035156 59.65625 284.796875 C 60.476562 284.660156 60.460938 283.304688 59.65625 283.15625 " fill-opacity="1" fill-rule="nonzero"/><path fill="#945c37" d="M 74.839844 311.894531 C 72.09375 309.679688 69.636719 306.925781 67.804688 303.914062 C 66.84375 302.335938 65.984375 300.585938 65.75 298.730469 C 65.507812 296.855469 66.179688 295.523438 67.21875 294.027344 C 67.8125 293.171875 66.582031 292.476562 65.898438 293.007812 C 62.503906 295.640625 63.984375 300.75 65.683594 303.875 C 67.605469 307.40625 70.429688 310.652344 73.558594 313.175781 C 74.457031 313.902344 75.75 312.625 74.839844 311.894531 " fill-opacity="1" fill-rule="nonzero"/><path fill="#945c37" d="M 92.878906 299.707031 C 90.246094 300.691406 87.351562 300.09375 84.949219 298.753906 C 83.753906 298.085938 82.660156 297.230469 81.765625 296.1875 C 80.800781 295.070312 80.386719 293.824219 79.789062 292.511719 C 79.417969 291.695312 78.078125 292.109375 78.121094 292.960938 C 78.28125 296.148438 81.363281 298.992188 83.960938 300.449219 C 86.785156 302.03125 90.296875 302.769531 93.40625 301.617188 C 94.589844 301.175781 94.078125 299.265625 92.878906 299.707031 " fill-opacity="1" fill-rule="nonzero"/><path fill="#945c37" d="M 86.277344 277.914062 C 86.09375 274.554688 84.539062 271.496094 82.699219 268.753906 C 82.042969 267.773438 80.445312 268.699219 81.109375 269.683594 C 82.777344 272.144531 84.292969 274.882812 84.488281 277.914062 C 84.6875 281.015625 83.449219 283.570312 81.875 286.152344 C 81.339844 287.035156 82.625 287.699219 83.21875 286.933594 C 85.171875 284.40625 86.453125 281.136719 86.277344 277.914062 " fill-opacity="1" fill-rule="nonzero"/><path fill="#945c37" d="M 73.796875 280.21875 C 72.183594 279.726562 70.457031 279.003906 69.40625 277.621094 C 68.214844 276.058594 68.613281 274.355469 69.199219 272.640625 C 69.496094 271.769531 68.15625 271.21875 67.71875 272.015625 C 66.640625 274 66.457031 276.460938 67.753906 278.390625 C 69.023438 280.285156 71.199219 281.3125 73.316406 281.960938 C 74.429688 282.300781 74.910156 280.554688 73.796875 280.21875 " fill-opacity="1" fill-rule="nonzero"/><path fill="#85502d" d="M 125.238281 302.3125 C 125.308594 301.671875 125.328125 301.292969 125.96875 301.023438 C 126.324219 300.875 126.707031 300.757812 127.097656 300.65625 C 128.097656 289.320312 124.695312 277.941406 117.851562 268.800781 C 110.558594 259.0625 99.636719 251.9375 87.507812 250.132812 C 74.824219 248.242188 61.632812 252.128906 52.824219 261.644531 C 48.578125 266.234375 45.433594 271.933594 44.316406 278.117188 C 43.1875 284.347656 44.117188 290.710938 46.835938 296.421875 C 51.746094 306.746094 62.601562 314.558594 74.21875 314.625 C 85.402344 314.691406 95.339844 307.148438 98.28125 296.40625 C 100.824219 287.105469 98.457031 276.089844 90.46875 270.136719 C 86.277344 267.015625 80.914062 265.828125 75.789062 266.71875 C 70.511719 267.640625 65.226562 270.585938 61.8125 274.730469 C 58.382812 278.894531 57 284.195312 59.34375 289.246094 C 61.578125 294.054688 66.164062 296.933594 71.464844 296.644531 C 75.832031 296.40625 80.707031 294.300781 82.675781 290.152344 C 84.742188 285.796875 82.980469 278.652344 77.296875 278.511719 C 74.535156 278.441406 72.195312 280.101562 70.609375 282.230469 C 69.566406 283.632812 71.933594 285.476562 73.050781 284.113281 C 74.242188 282.660156 76.351562 281.167969 78.324219 282.019531 C 80.09375 282.785156 80.660156 285.398438 80.453125 287.128906 C 80.011719 290.855469 75.96875 292.996094 72.601562 293.394531 C 68.375 293.902344 64.859375 292.035156 62.839844 288.304688 C 60.746094 284.449219 61.964844 280.1875 64.769531 277.054688 C 67.824219 273.636719 72.167969 271.289062 76.683594 270.523438 C 80.765625 269.828125 85.050781 271.039062 88.34375 273.511719 C 94.730469 278.3125 96.53125 287.417969 94.738281 294.859375 C 92.554688 303.894531 84.707031 310.566406 75.34375 311.101562 C 65.175781 311.679688 55.503906 305.433594 50.453125 296.84375 C 44.605469 286.90625 45.917969 274.839844 52.8125 265.78125 C 59.847656 256.535156 71.238281 251.839844 82.71875 252.253906 C 104.808594 253.046875 123.617188 272.695312 124.792969 294.507812 C 124.945312 297.308594 124.816406 300.128906 124.398438 302.902344 C 124.304688 303.511719 124.621094 303.976562 125.042969 304.226562 C 125.097656 303.585938 125.167969 302.945312 125.238281 302.3125 " fill-opacity="1" fill-rule="nonzero"/><path fill="#d08757" d="M 57.074219 270.859375 C 55.65625 270.859375 55.652344 273.0625 57.074219 273.0625 C 58.492188 273.0625 58.496094 270.859375 57.074219 270.859375 " fill-opacity="1" fill-rule="nonzero"/><path fill="#d08757" d="M 59.726562 264.039062 C 58.308594 264.039062 58.304688 266.242188 59.726562 266.242188 C 61.144531 266.242188 61.148438 264.039062 59.726562 264.039062 " fill-opacity="1" fill-rule="nonzero"/><path fill="#d08757" d="M 60.105469 267.828125 C 58.6875 267.828125 58.6875 270.03125 60.105469 270.03125 C 61.523438 270.03125 61.527344 267.828125 60.105469 267.828125 " fill-opacity="1" fill-rule="nonzero"/><path fill="#d08757" d="M 77.542969 254.570312 C 76.125 254.570312 76.125 256.773438 77.542969 256.773438 C 78.960938 256.773438 78.964844 254.570312 77.542969 254.570312 " fill-opacity="1" fill-rule="nonzero"/><path fill="#d08757" d="M 83.609375 245.855469 C 82.191406 245.855469 82.1875 248.058594 83.609375 248.058594 C 85.027344 248.058594 85.03125 245.855469 83.609375 245.855469 " fill-opacity="1" fill-rule="nonzero"/><path fill="#d08757" d="M 82.851562 251.160156 C 81.433594 251.160156 81.429688 253.363281 82.851562 253.363281 C 84.269531 253.363281 84.273438 251.160156 82.851562 251.160156 " fill-opacity="1" fill-rule="nonzero"/><path fill="#d08757" d="M 87.023438 254.191406 C 85.601562 254.191406 85.601562 256.394531 87.023438 256.394531 C 88.441406 256.394531 88.441406 254.191406 87.023438 254.191406 " fill-opacity="1" fill-rule="nonzero"/><path fill="#d08757" d="M 98.015625 246.238281 C 96.597656 246.238281 96.59375 248.4375 98.015625 248.4375 C 99.433594 248.4375 99.4375 246.238281 98.015625 246.238281 " fill-opacity="1" fill-rule="nonzero"/><path fill="#d08757" d="M 96.878906 264.039062 C 95.460938 264.039062 95.457031 266.242188 96.878906 266.242188 C 98.296875 266.242188 98.300781 264.039062 96.878906 264.039062 " fill-opacity="1" fill-rule="nonzero"/><path fill="#d08757" d="M 68.445312 314.046875 C 67.027344 314.046875 67.023438 316.25 68.445312 316.25 C 69.867188 316.25 69.867188 314.046875 68.445312 314.046875 " fill-opacity="1" fill-rule="nonzero"/><path fill="#d08757" d="M 69.207031 310.257812 C 67.785156 310.257812 67.785156 312.460938 69.207031 312.460938 C 70.621094 312.460938 70.625 310.257812 69.207031 310.257812 " fill-opacity="1" fill-rule="nonzero"/><path fill="#d08757" d="M 70.722656 312.53125 C 69.300781 312.53125 69.300781 314.734375 70.722656 314.734375 C 72.140625 314.734375 72.140625 312.53125 70.722656 312.53125 " fill-opacity="1" fill-rule="nonzero"/><path fill="#d08757" d="M 90.054688 304.195312 C 88.636719 304.195312 88.632812 306.398438 90.054688 306.398438 C 91.472656 306.398438 91.472656 304.195312 90.054688 304.195312 " fill-opacity="1" fill-rule="nonzero"/><path fill="#d08757" d="M 89.539062 320.84375 C 89.753906 320.199219 89.417969 319.347656 88.539062 319.347656 C 87.15625 319.347656 87.121094 321.429688 88.429688 321.542969 C 88.21875 322.1875 88.550781 323.035156 89.433594 323.035156 C 90.8125 323.035156 90.847656 320.957031 89.539062 320.84375 " fill-opacity="1" fill-rule="nonzero"/><path fill="#d08757" d="M 108.25 295.105469 C 106.832031 295.105469 106.832031 297.308594 108.25 297.308594 C 109.667969 297.308594 109.671875 295.105469 108.25 295.105469 " fill-opacity="1" fill-rule="nonzero"/><path fill="#d08757" d="M 110.527344 297 C 109.550781 297 109.246094 298.039062 109.609375 298.6875 C 109.449219 298.582031 109.25 298.511719 109.007812 298.511719 C 107.589844 298.511719 107.589844 300.71875 109.007812 300.71875 C 109.984375 300.71875 110.289062 299.679688 109.925781 299.027344 C 110.085938 299.132812 110.28125 299.203125 110.527344 299.203125 C 111.945312 299.203125 111.945312 297 110.527344 297 " fill-opacity="1" fill-rule="nonzero"/><path fill="#d08757" d="M 125.308594 276.542969 C 123.890625 276.542969 123.890625 278.742188 125.308594 278.742188 C 126.730469 278.742188 126.730469 276.542969 125.308594 276.542969 " fill-opacity="1" fill-rule="nonzero"/><path fill="#d08757" d="M 136.683594 255.328125 C 135.265625 255.328125 135.261719 257.53125 136.683594 257.53125 C 138.101562 257.53125 138.105469 255.328125 136.683594 255.328125 " fill-opacity="1" fill-rule="nonzero"/><path fill="#d08757" d="M 121.898438 242.445312 C 120.480469 242.445312 120.476562 244.652344 121.898438 244.652344 C 123.316406 244.652344 123.320312 242.445312 121.898438 242.445312 " fill-opacity="1" fill-rule="nonzero"/><path fill="#d08757" d="M 124.171875 249.644531 C 122.753906 249.644531 122.753906 251.847656 124.171875 251.847656 C 125.589844 251.847656 125.59375 249.644531 124.171875 249.644531 " fill-opacity="1" fill-rule="nonzero"/><path fill="#d08757" d="M 131.753906 246.992188 C 130.335938 246.992188 130.335938 249.195312 131.753906 249.195312 C 133.171875 249.195312 133.175781 246.992188 131.753906 246.992188 " fill-opacity="1" fill-rule="nonzero"/><path fill="#d08757" d="M 37.738281 295.484375 C 36.320312 295.484375 36.320312 297.6875 37.738281 297.6875 C 39.15625 297.6875 39.160156 295.484375 37.738281 295.484375 " fill-opacity="1" fill-rule="nonzero"/><path fill="#d08757" d="M 39.632812 289.800781 C 38.214844 289.800781 38.214844 292.003906 39.632812 292.003906 C 41.054688 292.003906 41.054688 289.800781 39.632812 289.800781 " fill-opacity="1" fill-rule="nonzero"/><path fill="#d08757" d="M 41.152344 293.210938 C 39.734375 293.210938 39.730469 295.414062 41.152344 295.414062 C 42.570312 295.414062 42.570312 293.210938 41.152344 293.210938 " fill-opacity="1" fill-rule="nonzero"/><path fill="#d08757" d="M 44.183594 295.484375 C 42.765625 295.484375 42.761719 297.6875 44.183594 297.6875 C 45.601562 297.6875 45.605469 295.484375 44.183594 295.484375 " fill-opacity="1" fill-rule="nonzero"/><path fill="#d08757" d="M 53.28125 289.800781 C 51.863281 289.800781 51.859375 292.003906 53.28125 292.003906 C 54.699219 292.003906 54.703125 289.800781 53.28125 289.800781 " fill-opacity="1" fill-rule="nonzero"/><path fill="#d08757" d="M 43.425781 276.542969 C 42.007812 276.542969 42.003906 278.742188 43.425781 278.742188 C 44.84375 278.742188 44.847656 276.542969 43.425781 276.542969 " fill-opacity="1" fill-rule="nonzero"/><path fill="#d08757" d="M 44.183594 286.011719 C 42.765625 286.011719 42.761719 288.214844 44.183594 288.214844 C 45.601562 288.214844 45.605469 286.011719 44.183594 286.011719 " fill-opacity="1" fill-rule="nonzero"/><path fill="#d08757" d="M 46.839844 286.011719 C 45.417969 286.011719 45.417969 288.214844 46.839844 288.214844 C 48.257812 288.214844 48.257812 286.011719 46.839844 286.011719 " fill-opacity="1" fill-rule="nonzero"/><path fill="#d08757" d="M 70.34375 287.527344 C 68.925781 287.527344 68.921875 289.730469 70.34375 289.730469 C 71.757812 289.730469 71.761719 287.527344 70.34375 287.527344 " fill-opacity="1" fill-rule="nonzero"/><path fill="#d08757" d="M 44.5625 315.183594 C 43.144531 315.183594 43.140625 317.386719 44.5625 317.386719 C 45.980469 317.386719 45.984375 315.183594 44.5625 315.183594 " fill-opacity="1" fill-rule="nonzero"/><path fill="#d08757" d="M 46.460938 320.488281 C 45.039062 320.488281 45.039062 322.6875 46.460938 322.6875 C 47.875 322.6875 47.878906 320.488281 46.460938 320.488281 " fill-opacity="1" fill-rule="nonzero"/><path fill="#d08757" d="M 51.386719 318.59375 C 49.96875 318.59375 49.964844 320.796875 51.386719 320.796875 C 52.804688 320.796875 52.808594 318.59375 51.386719 318.59375 " fill-opacity="1" fill-rule="nonzero"/><path fill="#d08757" d="M 46.839844 243.585938 C 45.417969 243.585938 45.417969 245.785156 46.839844 245.785156 C 48.257812 245.785156 48.257812 243.585938 46.839844 243.585938 " fill-opacity="1" fill-rule="nonzero"/><path fill="#d08757" d="M 45.699219 250.78125 C 44.28125 250.78125 44.28125 252.984375 45.699219 252.984375 C 47.121094 252.984375 47.121094 250.78125 45.699219 250.78125 " fill-opacity="1" fill-rule="nonzero"/><path fill="#d08757" d="M 49.871094 249.644531 C 48.453125 249.644531 48.449219 251.847656 49.871094 251.847656 C 51.289062 251.847656 51.289062 249.644531 49.871094 249.644531 " fill-opacity="1" fill-rule="nonzero"/><path fill="#d08757" d="M 53.660156 246.613281 C 52.242188 246.613281 52.242188 248.816406 53.660156 248.816406 C 55.078125 248.816406 55.082031 246.613281 53.660156 246.613281 " fill-opacity="1" fill-rule="nonzero"/><path fill="#d08757" d="M 61.621094 234.113281 C 60.203125 234.113281 60.203125 236.316406 61.621094 236.316406 C 63.039062 236.316406 63.042969 234.113281 61.621094 234.113281 " fill-opacity="1" fill-rule="nonzero"/></svg>